# xmcd
# 
# Track frame offsets:
#     150
#     13207
#     20575
#     32975
#     42814
#     56514
#     67501
#     78229
#     92421
#     105982
# 
# Disc length: 1554
# 
# Revision: 2
# Processed by: cddbd v1.5.2PL0 Copyright (c) Steve Scherf et al.
# Submitted via: fre:ac v1.0.31
# 
DISCID=6a06100a
DTITLE=Various Artist - Country Hall of Fame Volume 2
DYEAR=1997
DGENRE=Country Gospel
TTITLE0=George Jones - The Unclouded Day
TTITLE1=Jim Reeves - Old Time Religion
TTITLE2=George Jones - Take The World But Give Me Jesus
TTITLE3=George Jones - Boat of Life
TTITLE4=Roy Acuff - When I Lay My Burden Down
TTITLE5=George Jones - The Good Ole Bible
TTITLE6=Sons of the Pioneers - Somebody Bigger Than You and I
TTITLE7=George Jones - Will There be Stars in My Crown ?
TTITLE8=Carl Perkins - Halleluyah Special
TTITLE9=George Jones - If You Believe
EXTD=
EXTT0=
EXTT1=
EXTT2=
EXTT3=
EXTT4=
EXTT5=
EXTT6=
EXTT7=
EXTT8=
EXTT9=
PLAYORDER=
